<?xml version="1.0" encoding="UTF-8"?>
<svg id="Capa_2" data-name="Capa 2" xmlns="http://www.w3.org/2000/svg" viewBox="0 0 164.76 84.92">
  <defs>
    <style>
      .cls-1 {
        fill: #3c3c3b;
      }

      .cls-2 {
        fill: #afca1a;
      }
    </style>
  </defs>
  <g id="Layer_1" data-name="Layer 1">
    <g>
      <path class="cls-1" d="M132.84,31.96c-.1-2.47-.48-4.78-1.13-6.93,1.54-1.46,1.78-3.69.72-5.4-.95-1.53-2.71-2.26-4.46-1.96-.81-1.08-1.68-2.11-2.67-3.03-2.37-2.21-5.2-3.92-8.47-5.12-3.27-1.2-6.82-1.8-10.65-1.8s-7.36.6-10.61,1.8c-3.25,1.2-6.06,2.9-8.43,5.12-2.37,2.21-4.23,4.9-5.56,8.05-1.34,3.16-2,6.69-2,10.61s.67,7.41,2,10.61c1.34,3.2,3.19,5.95,5.56,8.23,2.37,2.28,5.18,4.04,8.43,5.29,3.25,1.24,6.79,1.87,10.61,1.87s7.37-.62,10.65-1.87c3.27-1.24,6.09-3.01,8.47-5.29,2.37-2.28,4.23-5.02,5.56-8.23,1.03-2.46,1.65-5.12,1.89-7.97.13-1.32.17-2.65.08-3.98ZM131.04,21.7c.03.36-.03.72-.16,1.04,0-.02-.01-.03-.02-.05-.45-1.06-.98-2.04-1.54-2.99.93.23,1.63,1.01,1.72,2.01ZM119.18,39.42c-.69,1.87-1.66,3.47-2.9,4.8-1.24,1.34-2.72,2.38-4.42,3.15-1.71.76-3.59,1.14-5.67,1.14s-3.96-.38-5.67-1.14c-1.71-.76-3.17-1.81-4.39-3.15-1.22-1.34-2.18-2.94-2.87-4.8-.69-1.87-1.04-3.91-1.04-6.12s.33-4.1,1-5.95c.67-1.84,1.62-3.42,2.87-4.74,1.24-1.31,2.72-2.35,4.42-3.11,1.7-.76,3.59-1.14,5.67-1.14s3.98.38,5.7,1.14c1.73.76,3.2,1.8,4.42,3.11,1.22,1.31,2.18,2.89,2.87,4.74.69,1.84,1.04,3.83,1.04,5.95s-.35,4.25-1.04,6.12Z"/>
      <g>
        <path class="cls-2" d="M10.8,71.37c-.37-.47-.85-.84-1.44-1.11-.59-.27-1.16-.41-1.71-.41-.28,0-.57.02-.86.08-.29.05-.55.15-.79.29s-.43.33-.59.55c-.16.23-.24.51-.24.86,0,.3.06.55.19.75.12.2.31.38.55.53s.53.29.86.41c.33.12.71.25,1.12.39.6.2,1.23.42,1.88.66.65.24,1.24.56,1.78.96.53.4.97.9,1.33,1.49.35.59.52,1.33.52,2.21,0,1.02-.19,1.9-.56,2.64s-.88,1.35-1.51,1.84c-.63.48-1.36.84-2.18,1.08s-1.66.35-2.52.35c-1.27,0-2.49-.22-3.67-.66-1.18-.44-2.17-1.07-2.95-1.89l2.8-2.85c.43.53,1,.98,1.71,1.34.71.36,1.41.54,2.11.54.32,0,.62-.03.92-.1s.56-.18.79-.33c.23-.15.4-.35.54-.6.13-.25.2-.55.2-.9s-.08-.62-.25-.85c-.17-.23-.4-.45-.71-.64s-.69-.37-1.15-.53c-.46-.16-.98-.33-1.56-.51-.57-.18-1.12-.4-1.66-.65-.54-.25-1.03-.57-1.45-.96s-.77-.87-1.02-1.42c-.26-.56-.39-1.24-.39-2.04,0-.98.2-1.82.6-2.52.4-.7.92-1.28,1.58-1.73.65-.45,1.38-.78,2.2-.99.82-.21,1.64-.31,2.47-.31,1,0,2.02.18,3.06.55,1.04.37,1.95.91,2.74,1.62l-2.72,2.88Z"/>
        <path class="cls-2" d="M29.9,76.97v7.5h-4.27v-7.5l-6.65-10.2h5.17l3.78,6.55,3.78-6.55h5l-6.8,10.2Z"/>
        <path class="cls-2" d="M52.82,71.37c-.37-.47-.85-.84-1.44-1.11-.59-.27-1.16-.41-1.71-.41-.28,0-.57.02-.86.08-.29.05-.55.15-.79.29s-.43.33-.59.55c-.16.23-.24.51-.24.86,0,.3.06.55.19.75.12.2.31.38.55.53s.53.29.86.41c.33.12.71.25,1.12.39.6.2,1.23.42,1.88.66.65.24,1.24.56,1.78.96.53.4.97.9,1.33,1.49.35.59.52,1.33.52,2.21,0,1.02-.19,1.9-.56,2.64s-.88,1.35-1.51,1.84c-.63.48-1.36.84-2.18,1.08s-1.66.35-2.52.35c-1.27,0-2.49-.22-3.67-.66-1.18-.44-2.17-1.07-2.95-1.89l2.8-2.85c.43.53,1,.98,1.71,1.34.71.36,1.41.54,2.11.54.32,0,.62-.03.92-.1s.56-.18.79-.33c.23-.15.4-.35.54-.6.13-.25.2-.55.2-.9s-.08-.62-.25-.85c-.17-.23-.4-.45-.71-.64s-.69-.37-1.15-.53c-.46-.16-.98-.33-1.56-.51-.57-.18-1.12-.4-1.66-.65-.54-.25-1.03-.57-1.45-.96s-.77-.87-1.02-1.42c-.26-.56-.39-1.24-.39-2.04,0-.98.2-1.82.6-2.52.4-.7.92-1.28,1.58-1.73.65-.45,1.38-.78,2.2-.99.82-.21,1.64-.31,2.47-.31,1,0,2.02.18,3.06.55,1.04.37,1.95.91,2.74,1.62l-2.72,2.88Z"/>
        <path class="cls-2" d="M70.95,70.42v14.05h-4.27v-14.05h-5v-3.65h14.27v3.65h-5Z"/>
        <path class="cls-2" d="M83.35,84.47v-17.7h11.9v3.6h-7.77v3.35h7.35v3.42h-7.35v3.67h8.22v3.65h-12.35Z"/>
        <path class="cls-2" d="M120.02,84.47l.1-12.53h-.08l-4.6,12.53h-3l-4.47-12.53h-.08l.1,12.53h-4.02v-17.7h6.08l4.03,11.35h.1l3.85-11.35h6.18v17.7h-4.2Z"/>
      </g>
      <path class="cls-1" d="M1.5,57.98V9.04h32.91v9.95H12.91v9.26h20.32v9.47H12.91v10.16h22.74v10.09H1.5Z"/>
      <path class="cls-1" d="M76.45,43.6l-.14-.14c-1.06,1.48-2.47,2.67-4.22,3.59-1.75.92-3.8,1.38-6.15,1.38-2.03,0-3.9-.37-5.6-1.11-1.71-.74-3.17-1.76-4.39-3.08-1.22-1.31-2.18-2.89-2.87-4.74-.69-1.84-1.04-3.87-1.04-6.08s.35-4.16,1.04-5.98c.69-1.82,1.66-3.4,2.9-4.74,1.24-1.34,2.73-2.38,4.46-3.15,1.73-.76,3.63-1.14,5.7-1.14,1.89,0,3.73.37,5.53,1.11,1.8.74,3.25,1.87,4.35,3.39l.3-.3c1.1-3.58,2.79-7.02,5.07-10.17-1.58-1.19-3.4-2.16-5.47-2.91-3.34-1.22-6.74-1.83-10.2-1.83-3.73,0-7.21.6-10.44,1.8-3.23,1.2-6.04,2.92-8.43,5.15-2.4,2.24-4.27,4.94-5.63,8.12-1.36,3.18-2.04,6.73-2.04,10.65s.67,7.33,2,10.51c1.34,3.18,3.18,5.91,5.53,8.19,2.35,2.28,5.13,4.04,8.33,5.29,3.2,1.24,6.69,1.87,10.47,1.87,4.15,0,7.81-.73,10.99-2.18,1.94-.89,3.67-1.99,5.23-3.26-2.37-3.16-4.14-6.63-5.3-10.26Z"/>
      <g id="t2ep1B.tif">
        <g>
          <path class="cls-1" d="M152.3,1.57c-.3-.42-.2-1.02.18-1.36.31-.27,1.07-.34,1.41.11,1.27,1.74,2.37,3.47,3.51,5.35,2-.43,3.98.49,4.88,2.26s.45,4.07-1.25,5.4c4.96,12.95,5,27.28,0,40.32,1.63,1.31,2.18,3.46,1.3,5.31-.88,1.84-2.9,2.8-4.93,2.36-1.1,1.82-2.17,3.47-3.36,5.18-.32.46-.94.62-1.36.41-.55-.28-.74-.96-.37-1.49,1.16-1.67,2.25-3.31,3.27-5.07-1.54-1.43-1.86-3.43-1-5.18.8-1.63,2.63-2.6,4.57-2.33,4.76-12.47,4.76-26.23,0-38.7-1.95.28-3.77-.7-4.57-2.33-.87-1.76-.53-3.76,1-5.18-1.03-1.77-2.1-3.4-3.28-5.08ZM156.25,57.75c.39,1.35,1.75,1.92,2.95,1.51,1.1-.38,1.75-1.6,1.39-2.79s-1.6-1.88-2.82-1.51c-1.09.33-1.9,1.5-1.52,2.79ZM156.26,10.56c.42,1.32,1.8,1.88,2.91,1.47,1.17-.43,1.76-1.65,1.41-2.81-.36-1.21-1.64-1.87-2.87-1.48-1.1.34-1.86,1.55-1.46,2.82Z"/>
          <path class="cls-1" d="M143.17,7.15c-.45-.59-.41-1.15-.02-1.52.41-.39,1.12-.39,1.5.1,5.27,6.82,8.47,14.92,9.28,23.53,2.08.47,3.46,2.19,3.49,4.17s-1.36,3.85-3.49,4.32c-.8,8.57-3.98,16.63-9.21,23.44-.42.54-1.08.65-1.58.19-.43-.39-.36-1,.05-1.54,4.91-6.43,7.93-14.04,8.7-22.18-1.87-.62-3.07-2.23-3.09-4.08s1.1-3.57,3.08-4.2c-.72-8.04-3.74-15.74-8.71-22.23ZM150.9,33.99c.3,1.37,1.64,2.04,2.82,1.71s1.87-1.5,1.61-2.68-1.48-2.01-2.71-1.73c-1.15.25-2.02,1.38-1.73,2.7Z"/>
          <path class="cls-1" d="M133.79,12.42c-.42-.5-.29-1.12.07-1.45.42-.38,1.11-.3,1.46.11,10.93,12.96,10.89,32-.08,44.93-.31.37-1.02.35-1.38.04s-.46-.99-.14-1.38c10.27-12.18,10.33-30.02.06-42.25Z"/>
        </g>
      </g>
      <path class="cls-2" d="M156.25,57.75c-.38-1.3.43-2.46,1.52-2.79,1.22-.37,2.47.37,2.82,1.51s-.28,2.41-1.39,2.79c-1.2.42-2.56-.16-2.95-1.51Z"/>
      <path class="cls-2" d="M156.26,10.56c-.4-1.27.36-2.48,1.46-2.82,1.23-.38,2.5.27,2.87,1.48.35,1.16-.24,2.37-1.41,2.81-1.11.41-2.5-.15-2.91-1.47Z"/>
      <path class="cls-2" d="M150.9,33.99c-.29-1.32.58-2.45,1.73-2.7,1.23-.27,2.44.51,2.71,1.73s-.45,2.35-1.61,2.68-2.52-.34-2.82-1.71Z"/>
      <path class="cls-2" d="M126.5,22.12c-.13-1.34.87-2.36,1.99-2.48,1.31-.15,2.43.79,2.54,2.07.1,1.2-.72,2.3-2.01,2.46-1.14.15-2.4-.66-2.53-2.05Z"/>
    </g>
  </g>
</svg>