<?xml version="1.0" encoding="utf-8"?>
<!-- Generator: Adobe Illustrator 25.4.1, SVG Export Plug-In . SVG Version: 6.00 Build 0)  -->
<svg version="1.1" id="Capa_1" xmlns="http://www.w3.org/2000/svg" xmlns:xlink="http://www.w3.org/1999/xlink" x="0px" y="0px"
	 viewBox="0 0 1568.86 673.13" style="enable-background:new 0 0 1568.86 673.13;" xml:space="preserve">
<style type="text/css">
	.st0{fill:#AADB1E;}
	.st1{fill:none;stroke:#54565A;stroke-miterlimit:10;}
	.st2{fill:#54565A;}
</style>
<g>
	<path class="st0" d="M79.26,135.36H78.8L58.55,249.95H36.23L71.67,69.09l59.6,136.68l59.59-136.68l35.44,180.86h-22.32
		l-20.25-114.59h-0.46l-52,118.27L79.26,135.36z"/>
	<path class="st0" d="M270.24,206.46l-19.79,43.49h-23.24l82.84-180.86l82.84,180.86h-23.24l-19.79-43.49H270.24z M310.05,116.49
		l-30.84,70.18h61.67L310.05,116.49z"/>
	<path class="st0" d="M515.3,249.95h-26.23l-51.08-73.4h-8.97v73.4h-21.63V76.45h26.23c15.42,0,31.99,0.23,45.79,8.05
		c14.5,8.51,22.78,24.85,22.78,41.42c0,24.85-16.57,45.56-41.65,48.55L515.3,249.95z M429.01,158.6h6.9
		c22.09,0,46.02-4.14,46.02-31.75c0-27.15-25.77-31.06-47.17-31.06h-5.75V158.6z"/>
	<path class="st0" d="M553.26,249.95h-21.63V76.45h21.63V249.95z"/>
	<path class="st0" d="M583.64,68.17l130.24,136.45V76.45h21.63v180.63L605.27,120.63v129.32h-21.63V68.17z"/>
	<path class="st0" d="M790.96,206.46l-19.79,43.49h-23.24l82.84-180.86l82.84,180.86h-23.24l-19.79-43.49H790.96z M830.77,116.49
		l-30.84,70.18h61.67L830.77,116.49z"/>
	<path class="st0" d="M1293.04,249.95h-26.23l-51.08-73.4h-8.97v73.4h-21.63V76.45h26.23c15.42,0,31.99,0.23,45.79,8.05
		c14.5,8.51,22.78,24.85,22.78,41.42c0,24.85-16.57,45.56-41.65,48.55L1293.04,249.95z M1206.74,158.6h6.9
		c22.09,0,46.02-4.14,46.02-31.75c0-27.15-25.77-31.06-47.17-31.06h-5.75V158.6z"/>
	<path class="st0" d="M1352.17,249.95h-21.63V96.24h-41.19V76.45h104.01v19.79h-41.19V249.95z"/>
	<path class="st0" d="M1512.78,146.4V76.45h21.63v173.5h-21.63v-83.3h-82.61v83.3h-21.63V76.45h21.63v69.95H1512.78z"/>
	<g>
		<path class="st0" d="M215.61,332.99v41.77h51.61v16.94h-51.61v72.89h-18.52V316.05H269v16.94H215.61z"/>
		<path class="st0" d="M435.86,390.32c0,44.13-34.87,77.43-77.82,77.43s-77.82-33.29-77.82-77.43c0-42.55,35.26-77.42,77.82-77.42
			C400.6,312.9,435.86,347.77,435.86,390.32z M417.35,390.32c0-32.7-24.43-60.09-59.3-60.09s-59.3,27.39-59.3,60.09
			c0,33.89,27.19,60.09,59.3,60.09C390.16,450.41,417.35,424.21,417.35,390.32z"/>
		<path class="st0" d="M469.75,316.05v87.67c0,24.23,7.29,46.69,35.86,46.69c28.57,0,35.86-22.46,35.86-46.69v-87.67h18.52v93.97
			c0,32.7-20.29,57.73-54.37,57.73c-34.08,0-54.37-25.02-54.37-57.73v-93.97H469.75z"/>
		<path class="st0" d="M583.81,308.96l111.51,116.83V316.05h18.52V470.7L602.33,353.87v110.72h-18.52V308.96z"/>
		<path class="st0" d="M738.65,316.05h30.73c45.51,0,83.34,24.03,83.34,73.48c0,50.63-37.04,75.06-83.93,75.06h-30.14V316.05z
			 M757.17,447.65h6.5c37.83,0,70.53-14.19,70.53-57.33c0-43.34-32.71-57.33-70.53-57.33h-6.5V447.65z"/>
		<path class="st0" d="M892.32,427.36l-16.94,37.23h-19.9l70.93-154.85l70.92,154.85h-19.9l-16.94-37.23H892.32z M926.4,350.33
			L900,410.41h52.8L926.4,350.33z"/>
		<path class="st0" d="M1033.97,464.59h-18.52v-131.6h-35.26v-16.94h89.05v16.94h-35.26V464.59z"/>
		<path class="st0" d="M1101.74,464.59h-18.52V316.05h18.52V464.59z"/>
		<path class="st0" d="M1274.71,390.32c0,44.13-34.87,77.43-77.82,77.43c-42.95,0-77.82-33.29-77.82-77.43
			c0-42.55,35.26-77.42,77.82-77.42C1239.45,312.9,1274.71,347.77,1274.71,390.32z M1256.19,390.32c0-32.7-24.43-60.09-59.3-60.09
			s-59.3,27.39-59.3,60.09c0,33.89,27.19,60.09,59.3,60.09C1229.01,450.41,1256.19,424.21,1256.19,390.32z"/>
		<path class="st0" d="M1290.86,308.96l111.51,116.83V316.05h18.52V470.7l-111.51-116.83v110.72h-18.52V308.96z"/>
	</g>
	<rect x="30.71" y="498.86" class="st1" width="1507.45" height="3.18"/>
	<g>
		<g>
			<path class="st2" d="M152.24,534.75h38.46v11.6h-25.51v28.61h23.35v11.47h-23.35v32.52h25.51v12.01h-38.46V534.75z"/>
			<path class="st2" d="M204.45,534.75h17.14c26.32,0,35.62,12.95,35.62,48.04c0,35.22-9.31,48.17-35.62,48.17h-17.14V534.75z
				 M224.29,618.54c15.25,0,19.83-10.25,19.83-35.89s-4.58-35.76-19.83-35.76h-6.75v71.65H224.29z"/>
			<path class="st2" d="M270.43,534.75h12.82v71.65c0,9.17,4.05,13.49,12.55,13.49s12.55-4.32,12.55-13.49v-71.65h12.82v70.58
				c0,18.49-7.69,26.85-25.37,26.85c-17.67,0-25.37-8.36-25.37-26.85V534.75z"/>
			<path class="st2" d="M363.93,632.18c-19.7,0-29.42-16.06-29.42-48.44c0-33.33,10.66-50.2,30.9-50.2c4.45,0,8.36,0.81,12.01,2.57
				v12.28c-3.65-1.76-7.01-2.7-10.12-2.7c-14.16,0-19.83,12.41-19.83,37.92c0,24.29,5.8,36.16,18.49,36.16
				c3.64,0,7.29-1.22,11.47-3.64v12.68C373.11,631.1,368.79,632.18,363.93,632.18z"/>
			<path class="st2" d="M404,534.75h12.15l22.53,96.21h-13.09L421,612.07h-21.99l-4.45,18.89h-13.09L404,534.75z M401.43,601.27
				h17.27l-8.64-41.69L401.43,601.27z"/>
			<path class="st2" d="M455.13,546.76h-17.81v-12.01h48.71v12.01h-17.81v84.2h-13.09V546.76z"/>
			<path class="st2" d="M496.01,534.75h12.95v96.21h-12.95V534.75z"/>
			<path class="st2" d="M526.24,534.75h12.01l25.5,66.79v-66.79h12.28v96.21h-12.15l-25.37-67.34v67.34h-12.28V534.75z"/>
			<path class="st2" d="M645.78,590.75c0,27.93-8.77,41.43-28.07,41.43c-20.51,0-27.93-15.66-27.93-49.25
				c0-33.87,7.29-49.39,28.34-49.39c14.3,0,22.94,6.75,26.18,20.24l-11.47,5.53c-1.89-9.31-6.61-13.9-14.57-13.9
				c-12.28,0-15.38,11.74-15.38,37.25c0,25.64,3.24,37.24,15.38,37.24c10.12,0,15.11-8.36,15.11-24.69c0-1.48,0-2.97-0.14-4.59
				h-13.76v-11.33h25.91C645.64,583.33,645.78,587.24,645.78,590.75z"/>
			<path class="st2" d="M685.3,534.75h39.4v11.6h-26.45v28.75h24.29v11.47h-24.29v44.4H685.3V534.75z"/>
			<path class="st2" d="M761.67,533.53c20.24,0,27.26,15.66,27.26,49.39c0,33.6-7.01,49.25-27.26,49.25
				c-20.24,0-27.39-15.52-27.39-49.25C734.28,549.19,741.43,533.53,761.67,533.53z M761.8,619.89c11.47,0,14.03-12.01,14.03-37.24
				c0-25.24-2.97-37.11-14.17-37.11c-11.2,0-14.3,11.87-14.3,37.11C747.37,608.02,750.74,619.89,761.8,619.89z"/>
			<path class="st2" d="M816.31,630.96h-12.95v-96.21h15.65c20.11,0,28.88,6.48,28.88,25.1c0,14.3-6.08,22.26-18.09,23.75
				l22.81,47.36h-13.9L816.72,584h-0.41V630.96z M820.36,576.58c11.2,0,14.44-4.99,14.44-16.73c0-10.93-4.05-13.76-14.84-13.76
				h-3.65v30.49H820.36z"/>
			<path class="st2" d="M898.61,546.76H880.8v-12.01h48.71v12.01H911.7v84.2h-13.09V546.76z"/>
			<path class="st2" d="M939.49,534.75h12.95v36.57h23.21v-36.57h12.95v96.21h-12.95v-47.5h-23.21v47.5h-12.95V534.75z"/>
			<path class="st2" d="M1005.46,534.75h38.46v11.6h-25.51v28.61h23.35v11.47h-23.35v32.52h25.51v12.01h-38.46V534.75z"/>
			<path class="st2" d="M1083.71,534.75h39.4v11.6h-26.45v28.75h24.29v11.47h-24.29v44.4h-12.95V534.75z"/>
			<path class="st2" d="M1134.71,534.75h12.82v71.65c0,9.17,4.05,13.49,12.55,13.49s12.55-4.32,12.55-13.49v-71.65h12.82v70.58
				c0,18.49-7.69,26.85-25.37,26.85c-17.67,0-25.37-8.36-25.37-26.85V534.75z"/>
			<path class="st2" d="M1212.43,546.76h-17.81v-12.01h48.71v12.01h-17.81v84.2h-13.09V546.76z"/>
			<path class="st2" d="M1252.5,534.75h12.82v71.65c0,9.17,4.05,13.49,12.55,13.49s12.55-4.32,12.55-13.49v-71.65h12.82v70.58
				c0,18.49-7.69,26.85-25.37,26.85c-17.67,0-25.37-8.36-25.37-26.85V534.75z"/>
			<path class="st2" d="M1332.64,630.96h-12.95v-96.21h15.65c20.11,0,28.88,6.48,28.88,25.1c0,14.3-6.08,22.26-18.09,23.75
				l22.81,47.36h-13.9L1333.05,584h-0.41V630.96z M1336.69,576.58c11.2,0,14.44-4.99,14.44-16.73c0-10.93-4.05-13.76-14.84-13.76
				h-3.65v30.49H1336.69z"/>
			<path class="st2" d="M1377.97,534.75h38.46v11.6h-25.51v28.61h23.35v11.47h-23.35v32.52h25.51v12.01h-38.46V534.75z"/>
		</g>
	</g>
	<g>
		<path class="st2" d="M968.94,162.1c-0.68,0.36-1.3,0.84-1.77,1.48c-0.83,1.13-1.18,2.52-0.96,3.91c0.21,1.39,0.95,2.62,2.08,3.46
			c0.91,0.67,2,1.03,3.11,1.03c0.27,0,0.54-0.02,0.8-0.06c2.87-0.43,4.85-3.12,4.42-5.99v-0.01c-0.33-2.11-1.87-3.74-3.8-4.27
			c-0.23-2.7-0.4-5.41-0.4-8.12c0-21.57,7.69-42.47,21.67-58.86c15.59-18.3,37.84-29.52,61.61-31.5c0.87,1.75,2.64,2.96,4.7,2.96
			h0.14h0c2.9-0.09,5.2-2.51,5.12-5.42c-0.04-1.41-0.62-2.71-1.65-3.67c-1.03-0.96-2.4-1.43-3.77-1.44
			c-2.29,0.07-4.15,1.61-4.81,3.68c-24.82,2.05-48.06,13.76-64.33,32.85c-14.57,17.1-22.59,38.9-22.59,61.4
			C968.51,156.38,968.68,159.25,968.94,162.1"/>
		<path class="st2" d="M1025.92,223.22c-0.24,2.2,0.87,4.4,3.01,5.34c0.67,0.3,1.38,0.44,2.08,0.44c2,0,3.92-1.16,4.78-3.11
			c0.56-1.27,0.59-2.68,0.09-3.99c-0.5-1.29-1.49-2.32-2.76-2.88c-1.27-0.56-2.68-0.6-3.98-0.09c-0.51,0.2-0.94,0.52-1.35,0.86
			c-4.97-2.66-9.73-5.72-14.01-9.44c-10.55-9.19-18.31-21.06-22.47-34.33c-1.53-4.92-2.39-10.02-2.88-15.17
			c0.48-0.26,0.95-0.54,1.33-0.93c0.97-1.01,1.48-2.32,1.46-3.71c-0.05-2.87-2.54-5.07-5.3-5.11c-1.4,0.02-2.7,0.6-3.66,1.6
			c-0.96,1-1.48,2.32-1.45,3.7c0.02,1.4,0.6,2.69,1.6,3.66c0.61,0.59,1.36,0.94,2.15,1.17c0.52,5.42,1.43,10.78,3.04,15.96
			c4.36,13.96,12.53,26.45,23.62,36.11C1015.7,217.21,1020.69,220.42,1025.92,223.22"/>
		<path class="st2" d="M1101.24,88.56c-0.32,1.93,0.41,3.96,2.12,5.14c0.89,0.62,1.91,0.94,2.97,0.94c0.31,0,0.62-0.02,0.93-0.08
			c1.37-0.25,2.56-1.01,3.35-2.14c0.8-1.14,1.1-2.52,0.86-3.89c-0.24-1.37-1-2.57-2.14-3.37c-1.86-1.29-4.25-1.16-6,0.1
			c-12.14-7.15-25.89-10.93-40.11-10.93c-14.7,0-28.86,4.02-41.27,11.62c-1.77-1.23-4.16-1.32-6,0.01
			c-2.32,1.69-2.84,4.94-1.16,7.28c1.02,1.4,2.62,2.15,4.23,2.15c1.06,0,2.12-0.32,3.04-0.98l0.01-0.01
			c1.68-1.22,2.38-3.26,2.02-5.18c11.77-7.18,25.19-10.99,39.13-10.99C1076.7,78.24,1089.73,81.8,1101.24,88.56"/>
		<path class="st2" d="M962.08,131.38c1.22-0.74,2.08-1.92,2.42-3.31c0.34-1.39,0.12-2.83-0.62-4.06c-0.35-0.58-0.82-1.07-1.34-1.47
			c1.91-6.32,4.42-12.44,7.5-18.29c0.21,0.03,0.43,0.09,0.64,0.09c1.82,0,3.6-0.93,4.61-2.6v-0.01c0.74-1.23,0.95-2.67,0.59-4.06
			c-0.35-1.39-1.22-2.56-2.45-3.29c-2.54-1.51-5.83-0.67-7.35,1.86c-0.73,1.23-0.94,2.67-0.58,4.06c0.2,0.79,0.61,1.48,1.11,2.08
			c-3.22,6.12-5.85,12.51-7.84,19.12c-0.79,0.08-1.56,0.29-2.26,0.71c-1.23,0.74-2.09,1.91-2.43,3.31
			c-0.33,1.39-0.11,2.83,0.63,4.06c0.73,1.23,1.91,2.08,3.3,2.42c0.42,0.11,0.86,0.16,1.29,0.16
			C960.27,132.15,961.23,131.89,962.08,131.38"/>
		<path class="st2" d="M990.55,225.22c-1.08-0.26-2.12-0.07-3.08,0.3c-8.51-9-15.41-19.47-20.26-30.82
			c0.13-0.14,0.31-0.22,0.44-0.37c0.89-1.12,1.29-2.52,1.12-3.95c-0.17-1.42-0.88-2.69-2-3.58c-1.12-0.88-2.5-1.29-3.94-1.13
			c-2.94,0.34-5.05,3.01-4.71,5.94c0.32,2.73,2.64,4.75,5.32,4.75c0.07,0,0.15-0.01,0.23-0.01c5.03,11.71,12.14,22.52,20.93,31.81
			c-0.17,0.35-0.39,0.67-0.48,1.06c-0.33,1.39-0.1,2.83,0.66,4.04c0.76,1.22,1.94,2.07,3.34,2.39c0.4,0.09,0.81,0.14,1.21,0.14
			c2.43,0,4.64-1.67,5.22-4.14c0.33-1.39,0.09-2.83-0.67-4.05C993.13,226.39,991.94,225.54,990.55,225.22"/>
		<path class="st2" d="M1127.08,232.16L1127.08,232.16c-1.64,1.37-2.22,3.53-1.71,5.48c-3.17,2.35-6.45,4.51-9.86,6.48
			c-1.58-1.23-3.79-1.56-5.71-0.6l-0.01,0c-2.63,1.33-3.69,4.56-2.36,7.19c0.94,1.87,2.83,2.95,4.79,2.95
			c0.81,0,1.64-0.19,2.41-0.57c2.11-1.07,3.14-3.36,2.81-5.58c3.53-2.05,6.95-4.3,10.25-6.74c0.7,0.44,1.48,0.76,2.33,0.85
			c0.16,0.01,0.32,0.02,0.49,0.02c1.25,0,2.45-0.43,3.42-1.25c2.27-1.89,2.57-5.28,0.68-7.54
			C1132.74,230.57,1129.37,230.26,1127.08,232.16"/>
		<path class="st2" d="M1170.69,122.64c-0.39-1.37-1.29-2.52-2.54-3.22c-0.72-0.4-1.51-0.57-2.3-0.62
			c-6.22-18.26-17.44-34.78-32.15-47.41c0.69-2.1,0.09-4.49-1.76-5.92c-2.35-1.8-5.71-1.36-7.53,0.99c-1.8,2.35-1.36,5.71,0.99,7.51
			c0.95,0.73,2.08,1.11,3.25,1.11c0.24,0,0.47-0.01,0.71-0.04c0.67-0.09,1.29-0.31,1.86-0.63c14.15,12.15,24.91,28.04,30.91,45.58
			c-0.49,0.42-0.94,0.91-1.27,1.49c-0.7,1.25-0.88,2.7-0.48,4.08c0.39,1.38,1.29,2.52,2.54,3.23c0.81,0.45,1.7,0.68,2.6,0.68
			c0.49,0,0.98-0.08,1.47-0.21c1.38-0.39,2.52-1.29,3.22-2.54C1170.91,125.47,1171.08,124.02,1170.69,122.64"/>
		<path class="st2" d="M1033.55,54.06c0.83,0.49,1.76,0.74,2.7,0.74c0.46,0,0.91-0.05,1.37-0.17h0.01c2.06-0.54,3.49-2.24,3.86-4.21
			c4.29-0.86,8.61-1.45,13-1.77c0.27,0.55,0.59,1.08,1.05,1.51c1.01,0.97,2.32,1.51,3.71,1.51h0.1c2.95-0.05,5.31-2.49,5.26-5.45
			c-0.02-1.43-0.6-2.76-1.63-3.77c-1.01-0.97-2.32-1.5-3.71-1.5h-0.1c-2.37,0.04-4.29,1.66-4.96,3.81
			c-4.55,0.33-9.04,0.94-13.48,1.83c-0.45-0.71-1.01-1.34-1.75-1.78c-1.24-0.72-2.68-0.92-4.06-0.56c-1.38,0.36-2.55,1.24-3.27,2.48
			c-0.72,1.24-0.92,2.68-0.55,4.06C1031.44,52.18,1032.32,53.34,1033.55,54.06"/>
		<path class="st2" d="M1156.02,151.07h-0.12c-2.85,0-5.2,2.28-5.27,5.14v0.01c-0.04,2.13,1.2,3.96,3,4.83
			c-0.7,8.54-2.52,16.89-5.57,24.87c-4.39,11.48-10.97,21.8-19.54,30.67c-5.38,5.57-11.45,10.43-18.05,14.47
			c-14.19,8.66-30.53,13.25-47.25,13.25c-14.57,0-28.86-3.51-41.68-10.15c0.07-0.61,0.07-1.25-0.08-1.87
			c-0.34-1.37-1.18-2.52-2.39-3.24c-1.2-0.73-2.61-0.94-3.99-0.6c-1.37,0.33-2.51,1.18-3.25,2.38c-0.73,1.2-0.94,2.62-0.61,3.98
			c0.34,1.37,1.19,2.52,2.39,3.25c0.83,0.5,1.77,0.76,2.72,0.76c0.43,0,0.85-0.05,1.27-0.16c0.78-0.19,1.46-0.59,2.06-1.08
			c13.41,6.95,28.35,10.63,43.57,10.63c17.44,0,34.48-4.77,49.28-13.82c6.89-4.21,13.22-9.28,18.83-15.08
			c8.93-9.25,15.79-20.02,20.38-32c3.2-8.35,5.09-17.09,5.82-26.03c0.73-0.24,1.43-0.6,2.01-1.16c1.02-0.97,1.59-2.28,1.63-3.67
			c0.03-1.4-0.48-2.74-1.46-3.76C1158.73,151.69,1157.42,151.11,1156.02,151.07"/>
		<path class="st2" d="M1106.41,78.22c0.81,0.45,1.68,0.67,2.55,0.67c1.07,0,2.06-0.4,2.94-1.01c9.11,5.92,17.12,13.44,23.59,22.16
			c-0.29,0.49-0.56,1.01-0.68,1.58c-0.3,1.37-0.05,2.79,0.72,3.97c1.01,1.55,2.7,2.4,4.44,2.4c0.98,0,1.96-0.27,2.84-0.84
			c1.19-0.76,2-1.94,2.29-3.31c0.29-1.38,0.05-2.79-0.72-3.97c-1.27-1.96-3.61-2.73-5.76-2.16c-6.74-9.08-15.08-16.92-24.56-23.08
			c0.43-2.18-0.49-4.47-2.52-5.61c-2.55-1.41-5.74-0.5-7.17,2.03C1102.97,73.59,1103.88,76.81,1106.41,78.22"/>
		<path class="st2" d="M1065.97,235.94h0.13c2.24-0.05,4.08-1.55,4.76-3.56c0.15-0.02,0.29-0.02,0.44-0.03
			c14.06-1.43,27.39-6.63,38.76-15c0.75,0.38,1.54,0.65,2.35,0.65c1.48,0,2.93-0.62,3.97-1.83c0.9-1.06,1.34-2.4,1.23-3.79
			c-0.11-1.39-0.75-2.65-1.82-3.55c-2.19-1.87-5.49-1.59-7.34,0.58c-0.91,1.06-1.34,2.41-1.23,3.79c0.03,0.41,0.2,0.76,0.32,1.14
			c-10.77,7.87-23.36,12.77-36.65,14.11c-0.09,0.01-0.18,0.01-0.27,0.01c-0.28-0.55-0.62-1.08-1.08-1.52
			c-1.01-0.96-2.36-1.4-3.72-1.43c-1.39,0.04-2.69,0.62-3.64,1.62c-0.96,1.01-1.46,2.33-1.42,3.71c0.04,1.39,0.61,2.68,1.61,3.64
			C1063.36,235.44,1064.63,235.94,1065.97,235.94"/>
		<path class="st2" d="M1136.58,147.21c-0.95,1.02-1.45,2.35-1.41,3.74c0.1,2.81,2.41,5.03,5.2,5.03h0.17
			c1.4-0.05,2.68-0.63,3.63-1.64c0.95-1.01,1.45-2.35,1.4-3.72c-0.05-1.39-0.62-2.68-1.63-3.63c-0.57-0.53-1.25-0.87-1.97-1.1
			c-0.15-1.65-0.37-3.29-0.63-4.93c0.64-0.41,1.21-0.92,1.63-1.58c0.73-1.18,0.98-2.57,0.67-3.94c-0.64-2.79-3.43-4.56-6.23-3.91
			c-1.35,0.31-2.52,1.13-3.25,2.32c-0.73,1.17-0.98,2.56-0.67,3.92c0.31,1.35,1.13,2.51,2.31,3.25c0.53,0.34,1.12,0.53,1.72,0.65
			c0.23,1.49,0.42,2.98,0.57,4.48C1137.53,146.41,1137.01,146.76,1136.58,147.21"/>
		<path class="st0" d="M1072.26,135.42c-15.04,7.6-20.31-18.07-61.96-38.28c41.19,45.48,35.36,87.68,20.59,115.8
			c11.31,1.96,10.19,10.64,10.19,10.64c28.7-25.44,55.73-87.1,94.15-115.69c-2.65,0-3.41-4.45-3.41-4.45
			C1112.98,110,1081.5,130.75,1072.26,135.42"/>
		<path class="st0" d="M1084.92,110.04c0,8.09-6.56,14.64-14.65,14.64c-8.09,0-14.65-6.56-14.65-14.64
			c0-8.09,6.56-14.65,14.65-14.65C1078.36,95.39,1084.92,101.95,1084.92,110.04"/>
	</g>
</g>
</svg>
