<?xml version="1.0" encoding="UTF-8"?>
<svg id="Capa_2" data-name="Capa 2" xmlns="http://www.w3.org/2000/svg" viewBox="0 0 115.71 64.18">
  <defs>
    <style>
      .cls-1 {
        letter-spacing: 0em;
      }

      .cls-2 {
        letter-spacing: 0em;
      }

      .cls-3 {
        letter-spacing: -.06em;
      }

      .cls-4 {
        fill: #fff;
      }

      .cls-5 {
        fill: #9d9d9c;
        font-family: NeulisNeue-Medium, 'Neulis Neue';
        font-size: 7px;
        font-weight: 500;
      }

      .cls-6 {
        letter-spacing: -.05em;
      }

      .cls-7 {
        fill: #b1c70c;
      }
    </style>
  </defs>
  <g id="Layer_1" data-name="Layer 1">
    <g>
      <g>
        <polygon class="cls-7" points="7.72 31.45 3.14 20.96 .42 34.84 2.14 34.84 3.69 26.05 3.73 26.05 7.72 35.12 11.71 26.05 11.75 26.05 13.3 34.84 15.01 34.84 12.29 20.96 7.72 31.45"/>
        <path class="cls-7" d="M18.39,31.5l-1.52,3.34h-1.78l6.36-13.88,6.36,13.88h-1.78l-1.52-3.34h-6.11ZM21.44,24.6l-2.37,5.39h4.73l-2.37-5.39Z"/>
        <path class="cls-7" d="M37.2,34.84h-2.01l-3.92-5.63h-.69v5.63h-1.66v-13.32h2.01c1.18,0,2.45.02,3.51.62,1.11.65,1.75,1.91,1.75,3.18,0,1.91-1.27,3.5-3.2,3.73l4.2,5.79ZM30.57,27.83h.53c1.7,0,3.53-.32,3.53-2.44s-1.98-2.39-3.62-2.39h-.44v4.82Z"/>
        <rect class="cls-7" x="38.45" y="21.52" width="1.66" height="13.32"/>
        <polygon class="cls-7" points="42.44 20.89 52.44 31.36 52.44 21.52 54.1 21.52 54.1 35.39 44.1 24.92 44.1 34.84 42.44 34.84 42.44 20.89"/>
        <path class="cls-7" d="M58.36,31.5l-1.52,3.34h-1.78l6.36-13.88,6.36,13.88h-1.78l-1.52-3.34h-6.11ZM61.41,24.6l-2.37,5.39h4.73l-2.37-5.39Z"/>
        <path class="cls-7" d="M96.89,34.84h-2.01l-3.92-5.63h-.69v5.63h-1.66v-13.32h2.01c1.18,0,2.46.02,3.52.62,1.11.65,1.75,1.91,1.75,3.18,0,1.91-1.27,3.5-3.2,3.73l4.2,5.79ZM90.27,27.83h.53c1.7,0,3.53-.32,3.53-2.44s-1.98-2.39-3.62-2.39h-.44v4.82Z"/>
        <polygon class="cls-7" points="101.43 34.84 99.77 34.84 99.77 23.04 96.61 23.04 96.61 21.53 104.59 21.53 104.59 23.04 101.43 23.04 101.43 34.84"/>
        <polygon class="cls-7" points="113.76 26.89 113.76 21.52 115.42 21.52 115.42 34.84 113.76 34.84 113.76 28.45 107.42 28.45 107.42 34.84 105.76 34.84 105.76 21.52 107.42 21.52 107.42 26.89 113.76 26.89"/>
        <polygon class="cls-7" points="14.19 41.22 14.19 44.42 18.16 44.42 18.16 45.72 14.19 45.72 14.19 51.32 12.77 51.32 12.77 39.92 18.29 39.92 18.29 41.22 14.19 41.22"/>
        <path class="cls-7" d="M31.1,45.62c0,3.39-2.68,5.94-5.97,5.94s-5.97-2.55-5.97-5.94,2.71-5.94,5.97-5.94,5.97,2.68,5.97,5.94M29.68,45.62c0-2.51-1.87-4.61-4.55-4.61s-4.55,2.1-4.55,4.61,2.09,4.61,4.55,4.61,4.55-2.01,4.55-4.61"/>
        <path class="cls-7" d="M33.7,39.92v6.73c0,1.86.56,3.58,2.75,3.58s2.75-1.72,2.75-3.58v-6.73h1.42v7.21c0,2.51-1.56,4.43-4.17,4.43s-4.17-1.92-4.17-4.43v-7.21h1.42Z"/>
        <polygon class="cls-7" points="42.46 39.37 51.01 48.34 51.01 39.92 52.44 39.92 52.44 51.79 43.88 42.82 43.88 51.32 42.46 51.32 42.46 39.37"/>
        <path class="cls-7" d="M54.34,39.91h2.36c3.49,0,6.4,1.84,6.4,5.64s-2.84,5.76-6.44,5.76h-2.31v-11.4ZM55.76,50.02h.5c2.9,0,5.42-1.09,5.42-4.4s-2.51-4.4-5.42-4.4h-.5v8.8Z"/>
        <path class="cls-7" d="M66.14,48.46l-1.3,2.86h-1.53l5.45-11.89,5.44,11.89h-1.53l-1.3-2.86h-5.23ZM68.75,42.55l-2.03,4.61h4.05l-2.03-4.61Z"/>
        <polygon class="cls-7" points="77.01 51.32 75.59 51.32 75.59 41.21 72.88 41.21 72.88 39.92 79.72 39.92 79.72 41.21 77.01 41.21 77.01 51.32 77.01 51.32"/>
        <rect class="cls-7" x="80.79" y="39.92" width="1.42" height="11.4"/>
        <path class="cls-7" d="M95.49,45.62c0,3.39-2.68,5.94-5.97,5.94s-5.97-2.55-5.97-5.94,2.71-5.94,5.97-5.94,5.97,2.68,5.97,5.94M94.07,45.62c0-2.51-1.87-4.61-4.55-4.61s-4.55,2.1-4.55,4.61,2.09,4.61,4.55,4.61,4.55-2.01,4.55-4.61"/>
        <polygon class="cls-7" points="96.73 39.37 105.29 48.34 105.29 39.92 106.71 39.92 106.71 51.79 98.15 42.82 98.15 51.32 96.73 51.32 96.73 39.37"/>
        <rect class="cls-7" y="53.95" width="115.71" height=".24"/>
        <polygon class="cls-4" points="9.33 56.7 12.28 56.7 12.28 57.59 10.32 57.59 10.32 59.79 12.12 59.79 12.12 60.67 10.32 60.67 10.32 63.17 12.28 63.17 12.28 64.09 9.33 64.09 9.33 56.7"/>
        <path class="cls-4" d="M13.34,56.7h1.31c2.02,0,2.74.99,2.74,3.69s-.72,3.7-2.74,3.7h-1.31v-7.39ZM14.86,63.13c1.17,0,1.52-.79,1.52-2.76s-.35-2.74-1.52-2.74h-.52v5.5h.52Z"/>
        <path class="cls-4" d="M18.4,56.7h.98v5.5c0,.7.31,1.04.96,1.04s.96-.33.96-1.04v-5.5h.98v5.42c0,1.42-.59,2.06-1.95,2.06s-1.95-.64-1.95-2.06v-5.42Z"/>
        <path class="cls-4" d="M25.58,64.18c-1.51,0-2.26-1.23-2.26-3.72s.82-3.85,2.37-3.85c.34,0,.64.06.92.2v.94c-.28-.13-.54-.21-.78-.21-1.09,0-1.52.95-1.52,2.91s.45,2.78,1.42,2.78c.28,0,.56-.09.88-.28v.97c-.33.18-.66.26-1.04.26"/>
        <path class="cls-4" d="M28.65,56.7h.93l1.73,7.39h-1.01l-.35-1.45h-1.69l-.34,1.45h-1l1.73-7.39ZM28.46,61.81h1.33l-.66-3.2-.66,3.2Z"/>
        <polygon class="cls-4" points="32.58 57.62 31.21 57.62 31.21 56.7 34.95 56.7 34.95 57.62 33.58 57.62 33.58 64.09 32.58 64.09 32.58 57.62"/>
        <rect class="cls-4" x="35.72" y="56.7" width=".99" height="7.39"/>
        <polygon class="cls-7" points="38.04 56.7 38.96 56.7 40.91 61.83 40.91 56.7 41.86 56.7 41.86 64.09 40.92 64.09 38.98 58.92 38.98 64.09 38.03 64.09 38.03 56.7 38.04 56.7"/>
        <polygon class="cls-7" points="38.04 56.7 38.96 56.7 40.91 61.83 40.91 56.7 41.86 56.7 41.86 64.09 40.92 64.09 38.98 58.92 38.98 64.09 38.03 64.09 38.03 56.7 38.04 56.7"/>
        <polygon class="cls-4" points="38.04 56.7 38.96 56.7 40.91 61.83 40.91 56.7 41.86 56.7 41.86 64.09 40.92 64.09 38.98 58.92 38.98 64.09 38.03 64.09 38.03 56.7 38.04 56.7"/>
        <path class="cls-4" d="M47.21,61c0,2.14-.67,3.18-2.15,3.18-1.57,0-2.14-1.2-2.14-3.78s.56-3.79,2.18-3.79c1.1,0,1.76.52,2.01,1.55l-.88.43c-.14-.71-.51-1.07-1.12-1.07-.94,0-1.18.9-1.18,2.86s.25,2.86,1.18,2.86c.78,0,1.16-.64,1.16-1.89,0-.11,0-.23-.01-.35h-1.06v-.87h1.99c.02.31.03.61.03.88"/>
        <polygon class="cls-4" points="50.25 56.7 53.27 56.7 53.27 57.59 51.24 57.59 51.24 59.8 53.11 59.8 53.11 60.68 51.24 60.68 51.24 64.09 50.25 64.09 50.25 56.7"/>
        <path class="cls-4" d="M56.11,56.61c1.55,0,2.09,1.2,2.09,3.79s-.54,3.78-2.09,3.78-2.1-1.19-2.1-3.78.55-3.79,2.1-3.79M56.12,63.24c.88,0,1.08-.92,1.08-2.86s-.23-2.85-1.09-2.85-1.1.91-1.1,2.85.26,2.86,1.11,2.86"/>
        <path class="cls-4" d="M60.3,64.09h-.99v-7.38h1.2c1.54,0,2.22.5,2.22,1.93,0,1.1-.47,1.71-1.39,1.82l1.75,3.63h-1.07l-1.69-3.61h-.03v3.61ZM60.61,59.91c.86,0,1.11-.38,1.11-1.29,0-.84-.31-1.06-1.14-1.06h-.28v2.34h.31Z"/>
        <polygon class="cls-4" points="66.62 57.62 65.25 57.62 65.25 56.7 68.99 56.7 68.99 57.62 67.62 57.62 67.62 64.09 66.62 64.09 66.62 57.62"/>
        <polygon class="cls-4" points="69.76 56.7 70.75 56.7 70.75 59.51 72.53 59.51 72.53 56.7 73.53 56.7 73.53 64.09 72.53 64.09 72.53 60.44 70.75 60.44 70.75 64.09 69.76 64.09 69.76 56.7"/>
        <polygon class="cls-4" points="74.82 56.7 77.77 56.7 77.77 57.59 75.81 57.59 75.81 59.79 77.61 59.79 77.61 60.67 75.81 60.67 75.81 63.17 77.77 63.17 77.77 64.09 74.82 64.09 74.82 56.7"/>
        <polygon class="cls-4" points="80.83 56.7 83.85 56.7 83.85 57.59 81.82 57.59 81.82 59.8 83.69 59.8 83.69 60.68 81.82 60.68 81.82 64.09 80.83 64.09 80.83 56.7"/>
        <path class="cls-4" d="M84.74,56.7h.98v5.5c0,.7.31,1.04.96,1.04s.96-.33.96-1.04v-5.5h.98v5.42c0,1.42-.59,2.06-1.95,2.06s-1.95-.64-1.95-2.06v-5.42Z"/>
        <polygon class="cls-4" points="90.71 57.62 89.34 57.62 89.34 56.7 93.08 56.7 93.08 57.62 91.71 57.62 91.71 64.09 90.71 64.09 90.71 57.62"/>
        <path class="cls-4" d="M93.78,56.7h.98v5.5c0,.7.31,1.04.96,1.04s.96-.33.96-1.04v-5.5h.98v5.42c0,1.42-.59,2.06-1.95,2.06s-1.95-.64-1.95-2.06v-5.42Z"/>
        <path class="cls-4" d="M99.93,64.09h-.99v-7.38h1.2c1.54,0,2.22.5,2.22,1.93,0,1.1-.47,1.71-1.39,1.82l1.75,3.63h-1.07l-1.69-3.61h-.03v3.61ZM100.24,59.91c.86,0,1.11-.38,1.11-1.29,0-.84-.31-1.06-1.14-1.06h-.28v2.34h.31Z"/>
        <polygon class="cls-4" points="103.41 56.7 106.37 56.7 106.37 57.59 104.41 57.59 104.41 59.79 106.2 59.79 106.2 60.67 104.41 60.67 104.41 63.17 106.37 63.17 106.37 64.09 103.41 64.09 103.41 56.7"/>
        <path class="cls-4" d="M72.02,28.1c-.05.03-.1.06-.14.11-.06.09-.09.19-.07.3.02.11.07.2.16.26.07.05.15.08.24.08.02,0,.04,0,.06,0,.22-.03.37-.24.34-.46h0c-.03-.16-.14-.29-.29-.33-.02-.21-.03-.42-.03-.62,0-1.66.59-3.26,1.66-4.52,1.2-1.41,2.9-2.27,4.73-2.42.07.13.2.23.36.23h.01c.22,0,.4-.19.39-.42,0-.11-.05-.21-.13-.28-.08-.07-.18-.11-.29-.11-.18,0-.32.12-.37.28-1.9.16-3.69,1.06-4.94,2.52-1.12,1.31-1.73,2.99-1.73,4.71,0,.22.01.44.03.66"/>
        <path class="cls-4" d="M76.39,32.79c-.02.17.07.34.23.41.05.02.11.03.16.03.15,0,.3-.09.37-.24.04-.1.05-.21,0-.31-.04-.1-.12-.18-.21-.22-.1-.04-.2-.05-.3,0-.04.02-.07.04-.1.07-.38-.2-.75-.44-1.08-.72-.81-.7-1.41-1.62-1.72-2.63-.12-.38-.18-.77-.22-1.16.04-.02.07-.04.1-.07.07-.08.11-.18.11-.28,0-.22-.2-.39-.41-.39-.11,0-.21.05-.28.12-.07.08-.11.18-.11.28,0,.11.05.21.12.28.05.05.1.07.17.09.04.42.11.83.23,1.23.33,1.07.96,2.03,1.81,2.77.34.3.73.55,1.13.76"/>
        <path class="cls-4" d="M82.17,22.45c-.02.15.03.3.16.4.07.05.15.07.23.07.02,0,.05,0,.07,0,.11-.02.2-.08.26-.16.06-.09.08-.19.06-.3-.02-.1-.08-.2-.16-.26-.14-.1-.33-.09-.46,0-.93-.55-1.99-.84-3.08-.84s-2.22.31-3.17.89c-.14-.09-.32-.1-.46,0-.18.13-.22.38-.09.56.08.11.2.17.33.17.08,0,.16-.02.23-.08.13-.09.18-.25.16-.4.9-.55,1.93-.84,3-.84s2.03.27,2.92.79"/>
        <path class="cls-4" d="M71.49,25.74c.09-.06.16-.15.19-.25.03-.11,0-.22-.05-.31-.03-.05-.06-.08-.1-.11.15-.48.34-.95.57-1.4.02,0,.03,0,.05,0,.14,0,.28-.07.35-.2h0c.06-.1.07-.21.05-.31-.03-.11-.09-.2-.19-.25-.2-.12-.45-.05-.56.14-.05.09-.07.2-.04.31.01.06.05.11.08.16-.25.47-.45.96-.6,1.47-.06,0-.12.02-.17.05-.09.06-.16.15-.19.25-.02.11,0,.22.05.31.06.09.15.16.25.19.03,0,.06.01.1.01.07,0,.15-.02.21-.06"/>
        <path class="cls-4" d="M73.68,32.94c-.08-.02-.16,0-.24.02-.65-.69-1.18-1.49-1.55-2.37,0-.01.02-.02.03-.03.07-.09.1-.19.09-.3-.01-.11-.07-.21-.15-.27-.09-.07-.19-.1-.3-.09-.23.03-.39.23-.36.46.02.21.2.36.41.36h.02c.39.9.93,1.73,1.61,2.44-.01.03-.03.05-.04.08-.02.11,0,.22.05.31.06.09.15.16.26.18.03,0,.06,0,.09,0,.19,0,.36-.13.4-.32.03-.11,0-.22-.05-.31-.06-.09-.15-.16-.25-.18"/>
        <path class="cls-4" d="M84.16,33.48h0c-.13.11-.17.27-.13.42-.24.18-.49.35-.76.5-.12-.09-.29-.12-.44-.05-.2.1-.28.35-.18.55.07.14.22.23.37.23.06,0,.13-.01.19-.04.16-.08.24-.26.21-.43.27-.16.53-.33.79-.52.05.03.11.06.18.06.01,0,.02,0,.04,0,.1,0,.19-.03.26-.1.17-.15.2-.41.05-.58-.14-.17-.4-.2-.58-.05"/>
        <path class="cls-4" d="M87.5,25.07c-.03-.11-.1-.19-.2-.25-.05-.03-.12-.04-.18-.05-.48-1.4-1.34-2.67-2.47-3.64.05-.16,0-.34-.13-.45-.18-.14-.44-.1-.58.08-.14.18-.1.44.08.58.07.05.16.08.25.08.02,0,.04,0,.05,0,.05,0,.1-.02.14-.05,1.09.93,1.91,2.15,2.37,3.5-.04.03-.07.07-.1.11-.05.1-.07.21-.04.31.03.11.1.19.2.25.06.03.13.05.2.05.04,0,.07,0,.11-.02.11-.03.19-.1.25-.2.05-.1.07-.21.04-.31"/>
        <path class="cls-4" d="M76.98,19.81c.06.04.13.06.21.06.03,0,.07,0,.1-.01h0c.16-.04.27-.17.3-.32.33-.07.66-.11,1-.14.02.04.05.08.08.12.08.08.18.12.28.12h0c.23,0,.41-.19.4-.42,0-.11-.05-.21-.13-.29-.08-.07-.18-.11-.28-.11h0c-.18,0-.33.13-.38.29-.35.02-.69.07-1.04.14-.03-.05-.08-.1-.13-.14-.1-.06-.21-.07-.31-.04-.11.03-.2.1-.25.19-.05.09-.07.2-.04.31.03.11.09.2.19.25"/>
        <path class="cls-4" d="M86.38,27.25h0c-.22,0-.4.18-.4.4,0,.16.09.3.23.37-.05.65-.19,1.3-.43,1.91-.34.88-.84,1.67-1.5,2.35-.41.43-.88.8-1.39,1.11-1.09.66-2.34,1.02-3.63,1.02-1.12,0-2.21-.27-3.2-.78,0-.05,0-.1,0-.15-.03-.1-.09-.19-.18-.25-.09-.05-.2-.07-.31-.05s-.19.09-.25.18c-.06.09-.07.2-.05.31.03.1.09.19.18.25.07.04.14.06.21.06.03,0,.06,0,.1-.01.06-.01.11-.04.16-.08,1.03.53,2.18.82,3.35.82,1.34,0,2.65-.37,3.78-1.06.53-.32,1.02-.71,1.45-1.16.69-.71,1.21-1.54,1.56-2.46.25-.64.39-1.31.45-2,.06-.02.11-.05.15-.09.08-.07.12-.17.13-.28,0-.11-.04-.21-.11-.29-.08-.08-.18-.12-.28-.13"/>
        <path class="cls-4" d="M82.57,21.66c.06.03.13.05.2.05.08,0,.16-.03.22-.08.7.45,1.31,1.03,1.81,1.7-.02.04-.04.08-.05.12-.02.1,0,.21.06.3.08.12.21.19.34.19.08,0,.15-.02.22-.06.09-.06.15-.15.18-.25.02-.11,0-.21-.05-.31-.1-.15-.28-.21-.44-.17-.52-.7-1.16-1.3-1.89-1.77.03-.17-.04-.34-.19-.43-.2-.11-.44-.04-.55.16-.11.2-.04.44.16.55"/>
        <path class="cls-4" d="M79.46,33.77h0c.17,0,.31-.12.37-.27.01,0,.02,0,.03,0,1.08-.11,2.1-.51,2.98-1.15.06.03.12.05.18.05.11,0,.23-.05.31-.14.07-.08.1-.18.09-.29,0-.11-.06-.2-.14-.27-.17-.14-.42-.12-.56.04-.07.08-.1.19-.09.29,0,.03.02.06.02.09-.83.6-1.79.98-2.81,1.08,0,0-.01,0-.02,0-.02-.04-.05-.08-.08-.12-.08-.07-.18-.11-.29-.11-.11,0-.21.05-.28.12-.07.08-.11.18-.11.28,0,.11.05.21.12.28.08.07.17.11.28.11"/>
        <path class="cls-4" d="M84.88,26.96c-.07.08-.11.18-.11.29,0,.21.19.39.4.39h.01c.11,0,.21-.05.28-.13.07-.08.11-.18.11-.29,0-.11-.05-.2-.13-.28-.04-.04-.1-.07-.15-.08-.01-.13-.03-.25-.05-.38.05-.03.09-.07.13-.12.05-.09.07-.2.05-.3-.05-.21-.26-.35-.48-.3-.1.02-.19.09-.25.18-.06.09-.08.2-.05.3.02.1.09.19.18.25.04.03.09.04.13.05.02.11.03.23.04.34-.04.02-.08.05-.12.08"/>
        <path class="cls-7" d="M79.95,26.05c-1.15.58-1.56-1.39-4.76-2.94,3.16,3.49,2.71,6.73,1.58,8.89.87.15.78.82.78.82,2.2-1.95,4.28-6.69,7.23-8.88-.2,0-.26-.34-.26-.34-1.45.5-3.86,2.1-4.57,2.45"/>
        <path class="cls-7" d="M80.92,24.1c0,.62-.5,1.12-1.12,1.12s-1.12-.5-1.12-1.12.5-1.12,1.12-1.12,1.12.5,1.12,1.12"/>
      </g>
      <text class="cls-5" transform="translate(27.18 5.92)"><tspan x="0" y="0">UN P</tspan><tspan class="cls-1" x="16.09" y="0">R</tspan><tspan class="cls-3" x="20.56" y="0">O</tspan><tspan x="25.79" y="0">Y</tspan><tspan class="cls-1" x="30.45" y="0">E</tspan><tspan class="cls-6" x="34.4" y="0">CT</tspan><tspan x="43.15" y="0">O D</tspan><tspan class="cls-2" x="55.56" y="0">E</tspan><tspan x="59.58" y="0">:</tspan></text>
    </g>
  </g>
</svg>